<?xml version="1.0" standalone="no"?>
<!DOCTYPE svg PUBLIC "-//W3C//DTD SVG 20010904//EN"
 "http://www.w3.org/TR/2001/REC-SVG-20010904/DTD/svg10.dtd">
<svg version="1.0" xmlns="http://www.w3.org/2000/svg"
 width="221.000000pt" height="221.000000pt" viewBox="0 0 221.000000 221.000000"
 preserveAspectRatio="xMidYMid meet">
<metadata>
Created by potrace 1.11, written by Peter Selinger 2001-2013
</metadata>
<g transform="translate(0.000000,221.000000) scale(0.100000,-0.100000)"
fill="#000000" stroke="none">
<path d="M1271 1899 c-25 -5 -48 -14 -52 -20 -4 -6 -12 -8 -18 -5 -26 17 -213
-78 -296 -149 -39 -34 -40 -34 -14 -35 27 0 57 -25 46 -37 -4 -3 -25 1 -47 10
l-40 16 -50 -62 c-59 -73 -110 -167 -139 -256 -24 -74 -24 -74 -11 -66 6 3 10
1 10 -4 0 -6 -4 -11 -9 -11 -14 0 -21 -38 -28 -149 -3 -60 -2 -102 3 -98 5 3
7 -16 6 -43 l-4 -49 -166 -141 c-197 -167 -463 -412 -457 -419 7 -7 231 146
460 314 109 81 201 143 202 138 2 -5 20 -43 41 -83 l38 -75 -210 -150 c-265
-189 -277 -198 -272 -203 8 -8 166 67 349 166 104 56 189 102 190 102 1 0 30
-26 63 -58 l61 -58 -158 -84 c-87 -46 -156 -86 -154 -88 7 -7 206 47 307 84
78 28 102 33 118 24 11 -6 20 -8 20 -5 0 4 7 -1 16 -9 19 -20 149 -60 168 -53
8 3 16 1 18 -5 5 -13 199 -24 251 -14 29 5 37 12 42 36 5 24 12 30 32 30 19 0
24 -4 19 -16 -4 -11 -1 -14 12 -12 9 1 22 -1 29 -5 19 -12 64 10 56 29 -5 14
-3 14 14 3 18 -11 30 -7 98 32 93 53 225 174 225 206 0 14 5 21 13 17 25 -9
137 220 137 280 0 9 -9 20 -20 26 -11 6 -19 14 -18 18 1 4 -3 17 -10 28 -15
29 -6 35 26 18 15 -8 30 -14 34 -14 11 0 9 197 -3 268 -6 34 -17 69 -25 76 -7
8 -11 16 -8 19 10 10 -18 80 -57 144 -21 35 -40 72 -44 83 -7 22 -65 70 -84
70 -7 0 -10 4 -7 9 15 23 -146 136 -263 185 -117 50 -315 70 -440 45z m372
-65 c-7 -3 -9 -13 -6 -22 4 -14 3 -14 -5 -2 -12 16 -7 30 11 29 9 0 9 -2 0 -5z
m-178 -24 c3 -5 1 -10 -4 -10 -6 0 -11 5 -11 10 0 6 2 10 4 10 3 0 8 -4 11
-10z m35 -50 c12 -8 9 -10 -12 -10 -16 0 -28 5 -28 10 0 13 20 13 40 0z m200
0 c0 -5 -2 -10 -4 -10 -3 0 -8 5 -11 10 -3 6 -1 10 4 10 6 0 11 -4 11 -10z
m-640 -19 c0 -5 -6 -14 -14 -20 -16 -13 -32 2 -21 19 8 12 35 13 35 1z m680
-75 c0 -3 -4 -8 -10 -11 -5 -3 -10 -1 -10 4 0 6 5 11 10 11 6 0 10 -2 10 -4z
m-640 -50 c-14 -14 -22 -2 -14 18 5 14 9 15 15 4 4 -7 4 -17 -1 -22z m260 20
c0 -3 -4 -8 -10 -11 -5 -3 -10 -1 -10 4 0 6 5 11 10 11 6 0 10 -2 10 -4z m-36
-27 c-3 -5 -10 -7 -15 -3 -5 3 -7 10 -3 15 3 5 10 7 15 3 5 -3 7 -10 3 -15z
m716 -10 c0 -5 -7 -9 -15 -9 -15 0 -20 12 -9 23 8 8 24 -1 24 -14z m-1030 -15
c0 -8 -4 -12 -10 -9 -5 3 -10 13 -10 21 0 8 5 12 10 9 6 -3 10 -13 10 -21z
m188 -9 c-3 -3 -9 2 -12 12 -6 14 -5 15 5 6 7 -7 10 -15 7 -18z m732 5 c0 -11
-4 -20 -8 -20 -4 0 -8 9 -9 20 -1 11 2 20 8 20 5 0 9 -9 9 -20z m-38 -24 c5 4
5 -4 -2 -16 -14 -27 -37 -12 -25 17 5 12 9 14 12 5 3 -6 9 -9 15 -6z m-1106
-33 c-10 -10 -19 5 -10 18 6 11 8 11 12 0 2 -7 1 -15 -2 -18z m184 22 c0 -2
-9 -9 -20 -15 -16 -9 -20 -8 -20 5 0 8 9 15 20 15 11 0 20 -2 20 -5z m390 -5
c0 -5 -7 -10 -16 -10 -8 0 -12 5 -9 10 3 6 10 10 16 10 5 0 9 -4 9 -10z m461
-43 c-14 -14 -26 17 -16 41 6 15 8 14 16 -7 6 -16 6 -28 0 -34z m134 43 c3 -5
-1 -10 -10 -10 -9 0 -13 5 -10 10 3 6 8 10 10 10 2 0 7 -4 10 -10z m-662 -13
c7 3 8 2 4 -2 -10 -11 -37 -15 -37 -6 0 14 14 23 18 12 2 -6 9 -8 15 -4z
m-373 -11 c0 -8 -4 -18 -10 -21 -5 -3 -10 -4 -10 -1 0 2 -3 11 -6 20 -4 11 -1
16 10 16 9 0 16 -6 16 -14z m180 -16 c0 -5 -2 -10 -4 -10 -3 0 -8 5 -11 10 -3
6 -1 10 4 10 6 0 11 -4 11 -10z m-278 -33 c3 -17 0 -23 -14 -24 -19 -2 -22 5
-12 31 9 23 21 20 26 -7z m814 2 c3 -6 2 -15 -4 -21 -6 -6 -11 -2 -15 11 -5
22 7 29 19 10z m-716 -18 c0 -11 -4 -23 -10 -26 -6 -4 -10 5 -10 19 0 14 5 26
10 26 6 0 10 -9 10 -19z m390 9 c0 -5 -4 -10 -10 -10 -5 0 -10 5 -10 10 0 6 5
10 10 10 6 0 10 -4 10 -10z m-247 -25 c-7 -19 -33 -20 -33 -1 0 15 20 26 32
19 4 -2 5 -10 1 -18z m545 0 c-3 -3 -13 -2 -22 1 -14 5 -15 9 -4 15 13 8 36
-6 26 -16z m-728 11 c0 -3 -4 -8 -10 -11 -5 -3 -10 -1 -10 4 0 6 5 11 10 11 6
0 10 -2 10 -4z m330 -16 c0 -11 -6 -20 -14 -20 -21 0 -31 21 -15 31 22 14 29
11 29 -11z m770 10 c0 -5 -4 -10 -9 -10 -6 0 -13 5 -16 10 -3 6 1 10 9 10 9 0
16 -4 16 -10z m-1160 -44 c-14 -14 -24 0 -16 21 6 15 8 15 16 3 6 -9 5 -19 0
-24z m237 -17 c-9 -15 -8 -21 6 -31 22 -17 7 -41 -24 -36 -16 2 -25 11 -27 26
-2 12 -8 22 -13 22 -14 0 -11 22 7 41 13 14 21 16 39 7 20 -9 22 -13 12 -29z
m-167 11 c0 -5 -7 -10 -16 -10 -8 0 -12 5 -9 10 3 6 10 10 16 10 5 0 9 -4 9
-10z m1230 -10 c0 -5 -7 -10 -15 -10 -8 0 -15 5 -15 10 0 6 7 10 15 10 8 0 15
-4 15 -10z m-1310 -4 c0 -3 -4 -8 -10 -11 -5 -3 -10 -1 -10 4 0 6 5 11 10 11
6 0 10 -2 10 -4z m960 -16 c0 -5 -5 -10 -11 -10 -5 0 -7 5 -4 10 3 6 8 10 11
10 2 0 4 -4 4 -10z m370 -10 c0 -5 -5 -10 -11 -10 -5 0 -7 5 -4 10 3 6 8 10
11 10 2 0 4 -4 4 -10z m-1165 -10 c3 -5 1 -10 -4 -10 -6 0 -11 5 -11 10 0 6 2
10 4 10 3 0 8 -4 11 -10z m1082 4 c-3 -3 -12 -4 -19 -1 -8 3 -5 6 6 6 11 1 17
-2 13 -5z m-472 -34 c3 -5 1 -10 -4 -10 -6 0 -11 5 -11 10 0 6 2 10 4 10 3 0
8 -4 11 -10z m-490 -10 c-3 -5 -11 -10 -16 -10 -6 0 -7 5 -4 10 3 6 11 10 16
10 6 0 7 -4 4 -10z m-158 -47 c11 -17 12 -21 1 -19 -29 6 -48 19 -48 33 0 21
30 12 47 -14z m1233 18 c0 -6 -4 -13 -10 -16 -5 -3 -10 1 -10 9 0 9 5 16 10
16 6 0 10 -4 10 -9z m-220 -20 c0 -13 -28 -22 -35 -11 -3 4 1 11 7 13 20 8 28
8 28 -2z m-1060 -26 c0 -10 -9 -15 -27 -14 -17 1 -21 3 -10 6 9 2 17 9 17 14
0 5 5 9 10 9 6 0 10 -7 10 -15z m445 -5 c3 -5 1 -10 -4 -10 -6 0 -11 5 -11 10
0 6 2 10 4 10 3 0 8 -4 11 -10z m195 -16 c0 -16 -16 -19 -25 -4 -8 13 4 32 16
25 5 -4 9 -13 9 -21z m-230 1 c0 -8 7 -15 15 -15 33 0 9 -32 -33 -45 -19 -6
-23 -3 -21 12 2 10 0 24 -5 32 -5 8 -3 16 5 22 21 13 39 11 39 -6z m261 -8
c-13 -13 -26 -3 -16 12 3 6 11 8 17 5 6 -4 6 -10 -1 -17z m-326 -17 c8 -36 0
-50 -26 -50 -12 0 -19 7 -19 20 0 10 -9 24 -20 30 -28 15 -16 30 25 30 29 0
34 -4 40 -30z m-521 -4 c-3 -9 -10 -13 -15 -10 -5 3 -3 11 4 19 15 16 19 13
11 -9z m770 -7 c-10 -16 -24 -9 -24 12 0 18 2 19 15 9 8 -7 12 -16 9 -21z
m384 10 c3 -17 -26 -54 -36 -45 -3 3 -6 20 -7 36 -2 26 1 31 19 28 11 -2 22
-10 24 -19z m102 -9 c0 -5 -7 -10 -15 -10 -8 0 -15 5 -15 10 0 6 7 10 15 10 8
0 15 -4 15 -10z m45 -1 c10 -15 -1 -23 -20 -15 -9 3 -13 10 -10 16 8 13 22 13
30 -1z m-1215 -29 c0 -5 -2 -10 -4 -10 -3 0 -8 5 -11 10 -3 6 -1 10 4 10 6 0
11 -4 11 -10z m1333 -14 c6 -16 -2 -28 -14 -20 -12 7 -11 34 0 34 5 0 11 -6
14 -14z m-253 -16 c0 -5 -7 -10 -16 -10 -8 0 -12 5 -9 10 3 6 10 10 16 10 5 0
9 -4 9 -10z m-795 -19 c-8 -9 -23 -11 -40 -7 -36 9 -22 25 20 23 29 -2 32 -4
20 -16z m-435 -11 c0 -5 -5 -10 -11 -10 -5 0 -7 5 -4 10 3 6 8 10 11 10 2 0 4
-4 4 -10z m1240 0 c0 -5 -4 -10 -9 -10 -6 0 -13 5 -16 10 -3 6 1 10 9 10 9 0
16 -4 16 -10z m-865 -10 c3 -5 1 -10 -4 -10 -6 0 -11 5 -11 10 0 6 2 10 4 10
3 0 8 -4 11 -10z m738 -43 c-10 -6 -19 -3 -28 9 -19 27 -8 37 20 17 19 -15 20
-19 8 -26z m287 28 c0 -8 -4 -15 -10 -15 -5 0 -10 7 -10 15 0 8 5 15 10 15 6
0 10 -7 10 -15z m-20 -46 c0 -10 5 -19 11 -19 5 0 7 -5 3 -11 -5 -8 -9 -8 -14
1 -6 9 -9 9 -15 0 -5 -8 -11 -6 -20 7 -11 15 -11 20 3 34 20 20 32 15 32 -12z
m-970 -10 c0 -6 -4 -7 -10 -4 -5 3 -10 11 -10 16 0 6 5 7 10 4 6 -3 10 -11 10
-16z m658 -1 c16 -16 15 -38 -2 -38 -13 0 -26 20 -26 41 0 13 14 11 28 -3z
m-28 -28 c0 -5 -5 -10 -11 -10 -5 0 -7 5 -4 10 3 6 8 10 11 10 2 0 4 -4 4 -10z
m-850 -10 c0 -5 -4 -10 -10 -10 -5 0 -10 5 -10 10 0 6 5 10 10 10 6 0 10 -4
10 -10z m110 0 c0 -5 -4 -10 -9 -10 -6 0 -13 5 -16 10 -3 6 1 10 9 10 9 0 16
-4 16 -10z m210 0 c0 -5 -4 -10 -10 -10 -5 0 -10 5 -10 10 0 6 5 10 10 10 6 0
10 -4 10 -10z m984 -6 c4 -9 4 -19 2 -21 -8 -8 -26 8 -26 23 0 19 16 18 24 -2z
m-666 -17 c2 -10 -3 -17 -12 -17 -9 0 -16 2 -16 4 0 2 -3 12 -6 21 -5 13 -2
16 12 13 10 -2 20 -11 22 -21z m-48 -2 c0 -17 -27 -32 -37 -21 -4 3 2 13 13
21 24 18 24 18 24 0z m-350 -26 c-7 -11 -14 -19 -16 -16 -7 7 7 37 17 37 6 0
5 -9 -1 -21z m-290 1 c0 -5 -7 -10 -16 -10 -8 0 -12 5 -9 10 3 6 10 10 16 10
5 0 9 -4 9 -10z m535 -9 c3 -5 1 -12 -5 -16 -5 -3 -10 1 -10 9 0 18 6 21 15 7z
m115 -11 c0 -5 7 -10 15 -10 8 0 15 -5 15 -11 0 -6 -9 -9 -20 -6 -18 5 -25 -4
-21 -26 1 -4 -9 -2 -21 5 -13 6 -30 11 -39 10 -9 -2 -22 4 -28 12 -13 16 -15
15 54 29 35 8 45 7 45 -3z m417 -6 c3 -8 0 -21 -6 -27 -10 -9 -16 -8 -26 7 -8
10 -12 23 -9 27 9 15 34 10 41 -7z m205 -25 c-4 -30 -6 -31 -18 -14 -17 23
-18 42 -1 48 20 7 24 0 19 -34z m-1182 15 c0 -8 -4 -12 -10 -9 -5 3 -10 10
-10 16 0 5 5 9 10 9 6 0 10 -7 10 -16z m60 -4 c9 -18 8 -20 -15 -20 -23 0 -24
2 -15 20 6 11 13 20 15 20 2 0 9 -9 15 -20z m61 -23 c-13 -13 -26 -3 -16 12 3
6 11 8 17 5 6 -4 6 -10 -1 -17z m-145 -24 c-10 -10 -19 5 -10 18 6 11 8 11 12
0 2 -7 1 -15 -2 -18z m1014 17 c0 -5 -4 -10 -10 -10 -5 0 -10 5 -10 10 0 6 5
10 10 10 6 0 10 -4 10 -10z m165 -7 c7 -20 -30 -57 -47 -47 -6 4 -6 9 2 14 7
4 9 13 6 19 -4 6 -4 16 -1 21 10 16 32 12 40 -7z m-1221 -14 c-3 -5 -10 -7
-15 -3 -5 3 -7 10 -3 15 3 5 10 7 15 3 5 -3 7 -10 3 -15z m376 -14 c0 -8 -4
-15 -10 -15 -5 0 -10 7 -10 15 0 8 5 15 10 15 6 0 10 -7 10 -15z m935 -5 c3
-5 -1 -10 -10 -10 -9 0 -13 5 -10 10 3 6 8 10 10 10 2 0 7 -4 10 -10z m-958
-26 c-9 -9 -28 6 -21 18 4 6 10 6 17 -1 6 -6 8 -13 4 -17z m98 17 c3 -5 1 -12
-5 -16 -5 -3 -10 1 -10 9 0 18 6 21 15 7z m-417 -22 c-2 -6 -8 -10 -13 -10 -5
0 -11 4 -13 10 -2 6 4 11 13 11 9 0 15 -5 13 -11z m524 -21 c-15 -15 -24 -6
-16 16 5 12 10 14 17 7 8 -8 8 -14 -1 -23z m410 -3 c-4 -35 -19 -65 -32 -65
-13 0 -13 30 -1 49 6 9 6 22 1 31 -7 13 -4 16 13 15 18 -2 21 -7 19 -30z
m-638 4 c-6 -11 -24 -2 -24 11 0 5 7 7 15 4 8 -4 12 -10 9 -15z m576 -4 c0
-28 -15 -34 -24 -9 -10 25 -7 34 9 34 9 0 15 -9 15 -25z m-76 -20 c3 -9 -3
-19 -14 -25 -11 -6 -20 -18 -20 -26 0 -9 -5 -12 -11 -8 -6 3 -15 0 -20 -7 -7
-10 -11 -11 -16 -3 -5 7 -17 13 -28 15 -16 4 -10 11 30 36 57 36 71 39 79 18z
m-334 -5 c0 -5 -7 -10 -15 -10 -8 0 -15 5 -15 10 0 6 7 10 15 10 8 0 15 -4 15
-10z m520 -5 c0 -8 -4 -15 -10 -15 -5 0 -10 7 -10 15 0 8 5 15 10 15 6 0 10
-7 10 -15z m260 -11 c0 -11 -5 -14 -16 -10 -9 3 -18 6 -20 6 -3 0 -2 5 1 10
10 16 35 12 35 -6z m-980 -20 c0 -8 -4 -12 -10 -9 -5 3 -10 10 -10 16 0 5 5 9
10 9 6 0 10 -7 10 -16z m838 -38 c-23 -45 -58 -63 -58 -30 0 25 41 76 56 70 8
-3 14 0 14 6 0 6 3 9 6 6 3 -3 -5 -26 -18 -52z m-218 23 c0 -5 -16 -17 -36
-26 -31 -15 -36 -15 -44 -3 -6 8 -9 20 -9 25 0 6 3 5 6 -2 3 -9 10 -7 24 6 20
18 59 18 59 0z m50 -19 c0 -11 -4 -20 -9 -20 -14 0 -23 18 -16 30 10 17 25 11
25 -10z m-660 -21 c0 -5 -9 -9 -20 -9 -11 0 -20 6 -20 14 0 9 7 12 20 9 11 -3
20 -9 20 -14z m416 -36 c-11 -11 -19 6 -11 24 8 17 8 17 12 0 3 -10 2 -21 -1
-24z m266 -9 c-9 -16 -10 -16 -21 4 -8 15 -8 21 2 25 19 7 30 -9 19 -29z
m-194 -11 c-4 -22 -22 -20 -26 1 -2 10 3 16 13 16 10 0 15 -7 13 -17z m52 -2
c0 -11 5 -21 12 -23 7 -3 9 -14 4 -31 -5 -23 -9 -25 -20 -15 -8 7 -12 17 -9
21 3 4 -8 5 -23 1 -23 -6 -26 -4 -21 10 4 10 7 20 7 22 0 2 7 4 15 4 8 0 15 7
15 15 0 8 5 15 10 15 6 0 10 -9 10 -19z m297 -28 c-3 -3 -11 -2 -17 2 -8 5 -7
11 2 22 12 15 13 14 16 -1 2 -10 1 -20 -1 -23z m-952 18 c3 -5 1 -12 -5 -16
-5 -3 -10 1 -10 9 0 18 6 21 15 7z m65 -1 c0 -5 -4 -10 -10 -10 -5 0 -10 5
-10 10 0 6 5 10 10 10 6 0 10 -4 10 -10z m338 0 c6 0 12 -4 12 -10 0 -5 -6
-10 -14 -10 -9 0 -12 -7 -9 -19 3 -10 0 -22 -6 -25 -6 -4 -11 -12 -11 -17 0
-6 5 -7 10 -4 12 7 26 -22 16 -33 -8 -7 -55 47 -56 65 0 6 5 13 11 15 9 3 9
10 -1 27 -11 22 -11 24 11 18 13 -4 30 -7 37 -7z m492 -21 c32 -5 29 -23 -5
-27 -14 -2 -25 -8 -25 -13 0 -5 -7 -9 -15 -9 -8 0 -15 9 -15 20 0 11 5 20 10
20 6 0 10 8 10 18 0 11 3 13 8 6 4 -7 18 -14 32 -15z m-940 -14 c0 -8 -4 -15
-10 -15 -5 0 -10 7 -10 15 0 8 5 15 10 15 6 0 10 -7 10 -15z m50 -1 c0 -2 -9
-8 -20 -14 -17 -9 -20 -8 -20 9 0 14 5 18 20 14 11 -3 20 -7 20 -9z m520 -20
c0 -2 -7 -4 -15 -4 -8 0 -15 4 -15 10 0 5 7 7 15 4 8 -4 15 -8 15 -10z m-211
-23 c11 -7 10 -11 -7 -20 -16 -9 -21 -7 -25 9 -5 21 8 26 32 11z m127 -34 c1
-15 -2 -29 -7 -32 -5 -4 -9 3 -9 14 0 10 -3 27 -7 37 -4 11 -2 15 7 12 7 -2
14 -16 16 -31z m-316 13 c0 -5 -5 -10 -11 -10 -5 0 -7 5 -4 10 3 6 8 10 11 10
2 0 4 -4 4 -10z m545 -10 c3 -5 -1 -10 -9 -10 -9 0 -16 5 -16 10 0 6 4 10 9
10 6 0 13 -4 16 -10z m-404 -44 c-18 -22 -29 -12 -23 20 4 23 6 24 20 10 13
-12 13 -18 3 -30z m-121 -3 c0 -7 -9 -13 -20 -13 -23 0 -24 3 -8 30 13 20 28
10 28 -17z m90 28 c0 -12 -20 -25 -27 -18 -7 7 6 27 18 27 5 0 9 -4 9 -9z
m180 -28 c0 -13 -3 -13 -15 -3 -8 7 -12 16 -9 21 8 13 24 1 24 -18z m130 7 c0
-5 -4 -10 -10 -10 -5 0 -10 5 -10 10 0 6 5 10 10 10 6 0 10 -4 10 -10z m-187
-46 c-3 -8 -12 -14 -20 -14 -10 0 -13 6 -9 16 3 9 6 20 6 26 0 7 5 6 14 -2 8
-6 12 -18 9 -26z m327 26 c0 -5 -4 -10 -10 -10 -5 0 -10 5 -10 10 0 6 5 10 10
10 6 0 10 -4 10 -10z"/>
</g>
</svg>
